<?xml version="1.0" standalone="no"?>
<!DOCTYPE svg PUBLIC "-//W3C//DTD SVG 20010904//EN"
 "http://www.w3.org/TR/2001/REC-SVG-20010904/DTD/svg10.dtd">
<svg version="1.0" xmlns="http://www.w3.org/2000/svg"
 width="500.000000pt" height="1200.000000pt" viewBox="0 0 500.000000 1200.000000"
 preserveAspectRatio="xMidYMid meet">
<metadata>
Created by potrace 1.16, written by Peter Selinger 2001-2019
</metadata>
<g transform="translate(0.000000,1200.000000) scale(0.100000,-0.100000)"
fill="#000000" stroke="none">
<path d="M2343 7715 c-29 -35 -53 -65 -53 -67 0 -3 26 -17 58 -32 l59 -28 58
29 58 30 -59 66 c-32 36 -61 65 -64 65 -3 1 -29 -28 -57 -63z"/>
<path d="M3579 7005 c-14 -22 -30 -95 -39 -185 -6 -52 -14 -98 -18 -102 -4 -4
-57 9 -117 29 l-110 36 -192 -38 -192 -37 -238 -134 c-131 -74 -245 -134 -253
-134 -8 0 -123 58 -255 129 l-240 129 -203 38 -203 37 -129 -38 c-72 -21 -132
-36 -135 -33 -3 2 -14 48 -25 101 -18 89 -29 118 -68 181 -12 19 -13 17 -6
-19 4 -22 8 -76 9 -120 1 -44 7 -89 12 -100 6 -11 13 -40 17 -65 13 -85 24
-108 51 -102 32 6 32 -2 0 -109 -13 -46 -25 -103 -25 -126 0 -50 -12 -54 -51
-17 l-28 27 14 -59 c8 -33 36 -144 62 -249 l48 -190 75 -39 c67 -35 84 -51
158 -142 100 -124 109 -154 54 -177 -20 -9 -53 -19 -72 -23 -45 -8 -100 -49
-100 -75 0 -20 15 -26 25 -9 11 19 42 10 71 -19 16 -16 49 -34 74 -41 60 -15
151 -71 148 -89 -2 -8 -23 -25 -48 -38 -25 -13 -46 -27 -48 -31 -1 -4 18 -28
43 -52 25 -24 45 -50 45 -57 0 -15 -16 -17 -24 -4 -3 5 -23 12 -43 16 -50 9
-102 52 -164 136 -48 64 -63 80 -57 61 2 -4 -7 -19 -20 -32 -13 -14 -31 -38
-40 -53 -9 -15 -30 -31 -46 -35 -23 -6 -32 -16 -41 -47 -8 -29 -17 -41 -33
-43 -26 -4 -25 -2 -11 -38 l10 -28 12 24 c24 48 105 41 207 -16 79 -45 80 -51
32 -125 -22 -35 -50 -75 -61 -89 l-19 -25 -29 21 c-31 23 -71 36 -77 25 -3 -4
11 -15 30 -26 32 -17 34 -21 34 -72 0 -29 -3 -53 -7 -52 -5 0 -23 19 -41 42
l-34 41 -98 1 c-94 0 -99 -1 -94 -20 3 -11 8 -49 12 -85 7 -62 8 -65 35 -68
24 -3 28 -7 23 -25 -3 -11 -1 -26 5 -33 5 -6 33 -83 63 -170 29 -88 57 -167
61 -176 5 -12 -4 -22 -34 -40 -24 -14 -41 -32 -43 -45 -2 -12 -112 -147 -245
-301 l-242 -279 -135 -77 c-75 -42 -137 -80 -140 -84 -5 -9 117 -196 135 -208
14 -8 22 1 158 169 68 83 98 114 107 107 8 -7 19 -1 36 22 14 18 62 77 106
130 l80 98 -3 -59 c-2 -35 3 -76 12 -102 15 -44 51 -160 58 -189 2 -8 8 -27
14 -42 6 -16 8 -28 5 -28 -4 0 -1 -7 6 -15 7 -8 16 -15 20 -15 4 0 33 79 65
176 32 97 76 217 100 266 l42 90 22 -63 c12 -35 31 -82 40 -104 10 -22 26 -63
35 -91 28 -87 33 -90 96 -61 77 35 131 57 140 57 4 0 5 -10 3 -23 -3 -13 2
-41 11 -62 16 -38 16 -38 -20 -87 -48 -67 -69 -169 -48 -237 8 -25 17 -51 22
-58 11 -17 73 -40 161 -59 37 -8 241 26 282 46 31 16 38 27 57 87 25 82 33
161 24 228 -6 40 -4 57 11 83 13 21 19 51 18 87 0 42 3 55 15 55 8 0 65 -20
127 -44 78 -31 121 -43 141 -39 39 8 47 -9 40 -92 -8 -101 -7 -126 5 -170 15
-54 19 -59 76 -88 111 -57 151 -67 316 -78 l159 -11 44 28 c33 21 49 40 62 72
16 42 15 46 -6 115 -13 40 -29 82 -37 93 -19 29 -86 73 -124 81 -27 5 -30 8
-23 32 5 14 9 46 9 71 0 27 17 91 44 162 l43 117 36 -18 c21 -10 95 -46 166
-80 124 -60 128 -63 122 -89 -3 -15 -9 -41 -12 -59 l-7 -32 128 -61 c70 -33
132 -60 138 -60 5 0 32 16 60 36 l51 37 51 -26 c27 -14 111 -55 185 -91 l134
-64 49 40 c56 48 64 64 73 153 6 62 -7 125 -26 125 -4 0 -13 -30 -20 -67 -34
-198 -50 -217 -25 -30 l17 124 -41 81 c-23 45 -41 86 -41 92 0 11 116 -30 155
-56 24 -16 168 -78 280 -121 40 -15 41 -15 91 16 39 24 67 55 123 136 40 58
70 109 67 114 -3 5 -23 12 -43 15 -158 29 -323 82 -721 233 -240 91 -460 174
-488 184 l-52 20 23 67 c13 37 26 83 29 102 4 27 1 23 -12 -16 -9 -27 -28 -70
-41 -95 l-24 -46 26 -69 c15 -38 40 -118 57 -179 16 -60 34 -125 39 -143 9
-30 8 -34 -15 -42 -14 -6 -32 -10 -39 -10 -14 0 -39 67 -51 138 -3 20 -10 51
-14 67 -5 17 -11 44 -14 60 -3 17 -10 50 -17 75 -14 55 -5 398 14 543 8 54 10
100 5 103 -13 8 -78 -50 -78 -70 0 -17 -25 -45 -42 -46 -3 0 -29 37 -58 83
-29 45 -60 94 -70 108 -24 34 -14 48 65 100 57 36 63 43 49 54 -23 16 -15 152
10 170 14 11 8 15 -36 27 -62 17 -70 11 -61 -45 5 -31 3 -36 -9 -32 -11 4 -23
-6 -38 -30 -27 -44 -81 -86 -115 -89 -14 -2 -34 -11 -44 -20 -9 -9 -24 -16
-32 -16 -8 0 10 22 39 48 28 26 52 52 52 58 0 6 -24 16 -52 24 -53 13 -120 40
-148 59 -12 9 -5 21 45 68 33 32 80 79 103 106 24 26 47 47 53 47 13 0 32 51
22 61 -13 13 -73 -19 -82 -43 -5 -13 -17 -30 -27 -39 -22 -19 -112 -54 -120
-47 -2 3 25 24 61 48 57 37 64 45 53 59 -32 40 -86 179 -80 204 2 8 -44 -1
-70 -15 -11 -5 -18 -5 -18 1 0 5 -14 13 -32 16 -18 4 -39 11 -48 15 -16 8
-102 29 -141 34 -13 2 -31 6 -40 10 -16 7 -54 13 -99 16 -44 3 33 17 165 30
90 9 136 19 185 40 36 15 115 49 176 74 78 33 127 61 170 97 32 28 77 65 99
82 l39 32 -25 -45 c-15 -25 -45 -78 -69 -117 -44 -75 -47 -110 -10 -100 14 4
20 0 21 -11 3 -63 7 -83 20 -98 12 -16 12 -17 -1 -9 -12 6 -12 5 -3 -5 13 -14
34 -5 28 13 -10 28 44 67 93 67 29 0 34 6 47 65 2 6 19 78 39 160 20 83 42
176 50 208 8 31 10 57 5 57 -5 0 -9 -4 -9 -8 0 -4 -14 -23 -30 -42 l-30 -35 6
50 c4 38 -1 73 -21 145 -15 52 -30 101 -33 108 -4 11 5 13 34 10 l39 -3 28
135 c19 95 26 159 25 215 -2 44 -6 76 -9 70z m-385 -495 c39 -13 71 -29 81
-43 24 -34 18 -92 -16 -162 -17 -35 -32 -71 -33 -79 -6 -41 -129 -137 -228
-178 -40 -16 -107 -45 -148 -63 -68 -30 -92 -35 -265 -50 -176 -16 -203 -16
-378 -1 -107 9 -202 22 -220 30 -18 8 -72 32 -122 53 -105 46 -200 111 -280
190 -67 67 -77 86 -99 178 -25 105 -28 98 34 108 69 10 186 5 201 -10 6 -6 12
-27 13 -47 4 -44 1 -41 51 -53 l40 -9 7 -67 c3 -38 12 -75 18 -83 9 -9 33 -14
74 -14 54 0 66 4 86 25 13 14 29 25 36 25 6 0 47 -18 90 -39 76 -38 79 -39 92
-20 9 13 25 19 51 19 25 0 54 11 87 32 59 37 119 65 157 72 15 3 56 23 91 45
35 22 80 47 101 55 l38 16 -6 -59 c-7 -67 5 -117 35 -143 25 -22 86 -23 116
-2 47 33 65 132 40 215 -6 22 -9 42 -6 45 6 5 140 31 174 33 12 1 51 -8 88
-19z m-260 -1275 c34 -23 48 -64 43 -128 -5 -57 -21 -97 -38 -97 -6 0 -7 -4
-4 -10 6 -10 -13 -14 -49 -10 -13 1 -16 -2 -10 -12 6 -10 4 -10 -9 1 -14 11
-17 11 -17 0 0 -7 -7 -3 -16 9 -8 12 -19 20 -24 17 -5 -3 -11 -1 -15 5 -3 5
-1 10 5 10 6 0 9 4 6 9 -9 13 -47 1 -39 -13 3 -7 1 -6 -7 1 -11 10 -17 9 -32
-4 -12 -11 -18 -12 -18 -4 0 8 -5 7 -16 -3 -8 -9 -22 -16 -30 -16 -18 0 -133
57 -156 78 -10 8 -18 11 -18 6 0 -11 64 -74 74 -74 4 0 23 -12 42 -26 31 -24
42 -26 113 -25 67 1 80 -1 86 -16 11 -24 14 -73 6 -73 -4 0 -7 10 -8 21 -2 28
-11 35 -24 22 -6 -6 -17 -9 -24 -6 -8 2 -16 -6 -20 -19 -9 -29 -42 -62 -47
-46 -3 7 -12 6 -29 -6 -14 -9 -29 -13 -32 -9 -4 3 -7 1 -7 -6 0 -7 -4 -10 -9
-6 -5 3 -12 1 -16 -5 -4 -6 -11 -8 -16 -5 -5 4 -9 -6 -10 -22 0 -15 -1 -57 -3
-93 -1 -36 -3 -99 -4 -140 -2 -64 -6 -79 -27 -104 -14 -16 -25 -33 -25 -38 0
-5 -4 -6 -10 -3 -5 3 -10 37 -10 76 0 48 -4 69 -12 70 -20 1 -50 7 -53 11 -2
2 -7 100 -11 218 l-9 214 29 46 c16 25 33 48 39 52 8 4 6 9 -5 13 -11 4 -39
-9 -80 -38 -90 -64 -125 -80 -146 -68 -9 6 -12 11 -7 11 11 0 14 99 3 116 -5
7 12 11 50 13 31 1 86 9 122 17 36 8 123 19 193 24 115 8 135 13 200 44 82 39
99 42 131 21z m-542 -277 c4 -94 -1 -170 -12 -183 -6 -8 -21 -11 -33 -8 -12 3
-30 6 -39 6 -9 1 -15 4 -12 8 5 9 -35 23 -43 15 -3 -3 -12 1 -20 9 -8 8 -23
15 -32 15 -23 0 -45 25 -35 41 4 8 3 9 -4 5 -7 -4 -12 -1 -13 6 0 7 -2 21 -4
31 -4 22 2 24 85 32 50 4 74 12 105 34 22 16 43 30 48 30 4 1 8 -18 9 -41z
m-409 -77 c21 11 42 18 45 15 10 -10 15 -171 8 -239 l-7 -65 -42 38 -41 38
-32 -25 -32 -24 -7 55 c-10 78 -2 190 14 210 13 16 16 16 34 -3 20 -20 20 -20
60 0z m-613 -364 c0 -98 2 -108 41 -203 23 -54 43 -111 46 -126 l5 -28 -70 0
c-65 0 -74 3 -97 27 -16 18 -25 39 -25 59 0 17 -7 51 -15 74 -20 56 -20 87 -1
71 26 -22 25 3 -4 93 -16 49 -27 93 -24 98 3 4 20 8 37 8 18 1 46 7 62 15 17
7 33 14 38 14 4 1 7 -45 7 -102z m1242 -206 c103 -1 108 -10 97 -141 -6 -66
-13 -98 -24 -106 -8 -6 -15 -18 -15 -27 0 -24 -25 -28 -187 -34 -132 -5 -155
-4 -177 11 -15 9 -26 23 -26 32 0 8 -4 13 -9 10 -16 -10 -21 23 -21 135 l0
109 73 1 c39 0 92 4 117 8 25 4 56 7 70 5 14 -1 60 -2 102 -3z m-1262 -461
c16 -10 17 -8 -53 -189 l-40 -104 -65 6 c-36 4 -67 9 -70 11 -2 3 1 19 8 36 7
16 10 41 8 55 -3 13 -1 22 3 19 5 -3 14 6 21 20 6 14 17 26 25 26 7 0 13 5 13
11 0 5 -5 7 -12 3 -7 -4 -2 6 10 23 12 17 22 33 22 36 0 3 4 17 10 31 8 23 15
26 57 26 27 0 55 -4 63 -10z m1523 -269 c4 -1 6 -4 5 -8 -4 -17 14 -87 29
-109 8 -13 13 -31 9 -39 -4 -11 1 -15 18 -15 83 0 174 -69 183 -139 7 -48 3
-49 -75 -26 -59 18 -93 55 -73 79 9 11 6 18 -17 34 -15 12 -41 24 -56 28 -17
4 -23 10 -17 14 19 11 -60 90 -89 90 -20 0 -22 2 -10 10 8 5 10 10 4 10 -20 0
-24 39 -6 50 10 5 12 10 7 10 -6 0 -15 -4 -21 -10 -5 -5 -15 -6 -24 0 -32 20
39 31 133 21z m-818 -31 c24 -9 25 -11 11 -26 -9 -8 -16 -24 -16 -35 0 -33
-19 -59 -43 -59 -13 0 -27 -4 -33 -10 -6 -6 -19 -1 -37 16 -30 27 -29 58 2
101 25 34 53 37 116 13z m-77 -204 c2 -2 -4 -16 -14 -31 -14 -22 -15 -31 -6
-46 24 -39 15 -59 -40 -84 l-53 -25 -3 37 c-5 51 4 92 29 132 18 29 24 33 51
27 17 -3 33 -8 36 -10z"/>
<path d="M2200 6115 c-16 -19 -5 -97 18 -123 10 -12 41 -24 77 -31 87 -15 182
12 238 68 23 22 38 43 35 46 -3 4 -40 2 -81 -4 -91 -13 -218 7 -253 40 -19 17
-22 18 -34 4z"/>
<path d="M2390 4211 c-46 -5 -55 -9 -55 -26 0 -18 8 -20 73 -23 l72 -3 0 -29
0 -30 -76 0 c-72 0 -75 -1 -72 -22 3 -21 8 -23 73 -24 39 0 102 2 140 5 l70 6
11 72 c6 40 8 75 6 78 -7 6 -170 4 -242 -4z"/>
<path d="M3478 5393 c-32 -5 -32 -5 -16 -50 10 -29 10 -36 -2 -43 -13 -8 -13
-10 1 -10 9 0 42 -18 73 -41 55 -39 57 -42 40 -60 -9 -10 -36 -28 -60 -40 -51
-24 -52 -18 30 -139 58 -87 61 -90 101 -90 24 0 43 -12 80 -50 l50 -51 0 -81
0 -82 72 -22 c71 -22 72 -22 78 -3 18 55 -88 247 -124 225 -18 -11 -59 42 -75
98 -18 62 -21 158 -6 187 15 28 47 24 110 -15 49 -30 65 -34 148 -38 l92 -5 0
28 c0 17 -7 32 -17 37 -10 5 -113 33 -228 61 l-211 52 -39 56 c-22 30 -39 61
-39 69 2 14 -6 15 -58 7z"/>
</g>
</svg>
